<svg width="172" height="64" viewBox="0 0 172 64" fill="none" xmlns="http://www.w3.org/2000/svg">
<mask id="mask0_531_1428" style="mask-type:alpha" maskUnits="userSpaceOnUse" x="19" y="15" width="134" height="34">
<path d="M22.611 47.561H21.0096C20.6653 47.561 20.3852 47.2796 20.3852 46.9337C20.3852 46.9301 20.3822 46.9271 20.3786 46.9271H19.1179C19.1143 46.9271 19.1113 46.9301 19.1113 46.9337C19.1113 47.9853 19.9629 48.8408 21.0096 48.8408H22.611C23.6577 48.8408 24.5092 47.9853 24.5092 46.9337C24.5092 45.8821 23.6577 45.0266 22.611 45.0266H21.0096C20.6653 45.0266 20.3852 44.7452 20.3852 44.3993C20.3852 44.0535 20.6653 43.7721 21.0096 43.7721H22.611C22.9553 43.7721 23.2353 44.0535 23.2353 44.3993C23.2353 44.403 23.2383 44.406 23.2419 44.406H24.5026C24.5063 44.406 24.5092 44.403 24.5092 44.3993C24.5092 43.3478 23.6577 42.4923 22.611 42.4923H21.0096C19.9628 42.4923 19.1113 43.3478 19.1113 44.3993C19.1113 45.4509 19.9629 46.3064 21.0096 46.3064H22.611C22.9553 46.3064 23.2353 46.5878 23.2353 46.9337C23.2353 47.2796 22.9553 47.561 22.611 47.561Z" fill="white"/>
<path d="M27.2097 48.8409H28.5337C28.5366 48.8409 28.5391 48.839 28.54 48.8363L28.8163 47.9737H30.9855L31.2617 48.8363C31.2626 48.839 31.2651 48.8409 31.268 48.8409H32.592C32.5941 48.8409 32.5961 48.8399 32.5973 48.8382C32.5986 48.8365 32.5989 48.8343 32.5983 48.8323L30.5692 42.497C30.5683 42.4943 30.5658 42.4924 30.5629 42.4924H29.2389C29.236 42.4924 29.2335 42.4943 29.2327 42.497L27.2034 48.8323C27.2028 48.8343 27.2031 48.8365 27.2044 48.8382C27.2056 48.8399 27.2076 48.8409 27.2097 48.8409ZM29.2264 46.6932L29.9009 44.5873L30.5754 46.6932H29.2264Z" fill="white"/>
<path d="M35.7527 48.8407H37.0134C37.017 48.8407 37.02 48.8378 37.02 48.8341V42.4989C37.02 42.4952 37.017 42.4923 37.0134 42.4923H35.7527C35.749 42.4923 35.7461 42.4952 35.7461 42.4989V48.8341C35.7461 48.8378 35.749 48.8407 35.7527 48.8407Z" fill="white"/>
<path d="M40.1741 43.7725H42.2281V48.8341C42.2281 48.8378 42.231 48.8407 42.2346 48.8407H43.4958C43.4995 48.8407 43.5024 48.8378 43.5024 48.8341V43.7725H45.5565C45.5601 43.7725 45.563 43.7696 45.563 43.7659V42.4989C45.563 42.4952 45.5601 42.4923 45.5565 42.4923H40.1741C40.1704 42.4923 40.1675 42.4952 40.1675 42.4989V43.7659C40.1675 43.7696 40.1704 43.7725 40.1741 43.7725Z" fill="white"/>
<path d="M47.0037 48.8409H48.3277C48.3306 48.8409 48.3331 48.839 48.3339 48.8363L48.6102 47.9737H50.7794L51.0557 48.8363C51.0566 48.839 51.059 48.8409 51.0619 48.8409H52.386C52.3881 48.8409 52.39 48.8399 52.3913 48.8382C52.3925 48.8365 52.3928 48.8343 52.3923 48.8323L50.3632 42.497C50.3623 42.4943 50.3598 42.4924 50.3569 42.4924H49.0329C49.03 42.4924 49.0275 42.4943 49.0266 42.497L46.9974 48.8323C46.9968 48.8343 46.9971 48.8365 46.9983 48.8382C46.9996 48.8399 47.0015 48.8409 47.0037 48.8409ZM49.0203 46.6932L49.6948 44.5873L50.3693 46.6932H49.0203Z" fill="white"/>
<path d="M60.9308 48.8343C60.9308 48.8379 60.9338 48.8409 60.9374 48.8409H62.1983C62.2019 48.8409 62.2048 48.8379 62.2048 48.8343V42.499C62.2048 42.4954 62.2019 42.4924 62.1983 42.4924H60.7158C60.7136 42.4924 60.7114 42.4936 60.7103 42.4956L58.8724 45.4815L57.0346 42.4956C57.0334 42.4936 57.0313 42.4924 57.029 42.4924H55.5466C55.543 42.4924 55.54 42.4954 55.54 42.499V48.8343C55.54 48.8379 55.543 48.8409 55.5466 48.8409H56.807C56.8106 48.8409 56.8135 48.8379 56.8135 48.8343V44.5694L58.8669 47.9052C58.8692 47.9091 58.8757 47.9091 58.8781 47.9052L60.9309 44.5704L60.9308 48.8343Z" fill="white"/>
<path d="M65.3606 48.8409H66.6846C66.6875 48.8409 66.69 48.839 66.6909 48.8363L66.9671 47.9737H69.1363L69.4126 48.8363C69.4135 48.839 69.416 48.8409 69.4189 48.8409H70.7429C70.745 48.8409 70.7469 48.8399 70.7482 48.8382C70.7495 48.8365 70.7498 48.8343 70.7492 48.8323L68.7201 42.497C68.7192 42.4943 68.7167 42.4924 68.7138 42.4924H67.3898C67.3869 42.4924 67.3844 42.4943 67.3835 42.497L65.3543 48.8323C65.3537 48.8343 65.354 48.8365 65.3553 48.8382C65.3565 48.8399 65.3585 48.8409 65.3606 48.8409ZM67.3773 46.6932L68.0518 44.5873L68.7262 46.6932H67.3773Z" fill="white"/>
<path d="M84.3749 42.4924H83.1142C83.1106 42.4924 83.1076 42.4954 83.1076 42.4991V46.1304C83.1076 46.9192 82.4688 47.561 81.6836 47.561C80.8984 47.561 80.2597 46.9192 80.2597 46.1304V42.4991C80.2597 42.4954 80.2567 42.4924 80.2531 42.4924H78.9924C78.9888 42.4924 78.9858 42.4954 78.9858 42.4991V46.1304C78.9858 47.6249 80.1961 48.8407 81.6836 48.8407C83.1712 48.8407 84.3815 47.6249 84.3815 46.1304V42.4991C84.3815 42.4954 84.3785 42.4924 84.3749 42.4924Z" fill="white"/>
<path d="M87.5354 48.8409H88.7957C88.7994 48.8409 88.8023 48.8379 88.8023 48.8343V44.5699L91.4298 48.8378C91.4309 48.8397 91.4331 48.8409 91.4353 48.8409H92.9177C92.9214 48.8409 92.9243 48.8379 92.9243 48.8343V42.499C92.9243 42.4954 92.9214 42.4924 92.9177 42.4924H91.6569C91.6532 42.4924 91.6503 42.4954 91.6503 42.499V46.7634L89.0234 42.4956C89.0223 42.4936 89.0201 42.4924 89.0178 42.4924H87.5354C87.5317 42.4924 87.5288 42.4954 87.5288 42.499V48.8343C87.5288 48.8379 87.5318 48.8409 87.5354 48.8409Z" fill="white"/>
<path d="M96.0784 48.8407H97.3391C97.3427 48.8407 97.3456 48.8378 97.3456 48.8341V42.4989C97.3456 42.4952 97.3427 42.4923 97.3391 42.4923H96.0784C96.0747 42.4923 96.0718 42.4952 96.0718 42.4989V48.8341C96.0718 48.8378 96.0747 48.8407 96.0784 48.8407Z" fill="white"/>
<path d="M102.529 48.8409H103.853C103.856 48.8409 103.858 48.839 103.859 48.8363L105.888 42.5011C105.889 42.4991 105.889 42.4968 105.887 42.4951C105.886 42.4934 105.884 42.4924 105.882 42.4924H104.558C104.555 42.4924 104.553 42.4943 104.552 42.497L103.191 46.7461L101.83 42.497C101.829 42.4943 101.827 42.4924 101.824 42.4924H100.5C100.498 42.4924 100.496 42.4934 100.494 42.4951C100.493 42.4968 100.493 42.4991 100.493 42.5011L102.523 48.8363C102.524 48.839 102.526 48.8409 102.529 48.8409Z" fill="white"/>
<path d="M109.043 48.8407H114.425C114.429 48.8407 114.432 48.8378 114.432 48.8341V47.5671C114.432 47.5634 114.429 47.5605 114.425 47.5605H110.311V46.3066H113.165C113.168 46.3066 113.171 46.3037 113.171 46.3V45.033C113.171 45.0293 113.168 45.0264 113.165 45.0264H110.311V43.7725H114.425C114.429 43.7725 114.432 43.7696 114.432 43.7659V42.4989C114.432 42.4952 114.429 42.4923 114.425 42.4923H109.043C109.039 42.4923 109.036 42.4952 109.036 42.4989V48.8341C109.036 48.8378 109.039 48.8407 109.043 48.8407Z" fill="white"/>
<path d="M117.585 48.8409H118.846C118.85 48.8409 118.853 48.8379 118.853 48.8343V47.4531H120.505C120.546 47.4531 120.586 47.452 120.626 47.45L121.48 48.8378C121.481 48.8397 121.483 48.8409 121.486 48.8409H122.968C122.97 48.8409 122.972 48.8396 122.973 48.8375C122.974 48.8354 122.974 48.8329 122.973 48.8309L121.87 47.039C122.562 46.5782 122.974 45.8065 122.974 44.9728C122.974 43.6051 121.867 42.4924 120.505 42.4924H117.585C117.582 42.4924 117.579 42.4954 117.579 42.4991V48.8343C117.579 48.8379 117.582 48.8409 117.585 48.8409ZM121.194 45.9534C120.993 46.0972 120.755 46.1732 120.505 46.1732H118.853V43.7724H120.505C121.164 43.7724 121.7 44.3109 121.7 44.9728C121.7 45.362 121.511 45.7286 121.194 45.9534Z" fill="white"/>
<path d="M129.486 47.561H127.885C127.54 47.561 127.26 47.2796 127.26 46.9337C127.26 46.9301 127.257 46.9271 127.254 46.9271H125.993C125.989 46.9271 125.986 46.9301 125.986 46.9337C125.986 47.9853 126.838 48.8408 127.885 48.8408H129.486C130.533 48.8408 131.384 47.9853 131.384 46.9337C131.384 45.8821 130.533 45.0266 129.486 45.0266H127.885C127.54 45.0266 127.26 44.7452 127.26 44.3993C127.26 44.0535 127.54 43.7721 127.885 43.7721H129.486C129.83 43.7721 130.11 44.0535 130.11 44.3993C130.11 44.403 130.113 44.406 130.117 44.406H131.378C131.381 44.406 131.384 44.403 131.384 44.3993C131.384 43.3478 130.533 42.4923 129.486 42.4923H127.885C126.838 42.4923 125.986 43.3478 125.986 44.3993C125.986 45.4509 126.838 46.3064 127.885 46.3064H129.486C129.83 46.3064 130.11 46.5878 130.11 46.9337C130.11 47.2796 129.83 47.561 129.486 47.561Z" fill="white"/>
<path d="M134.536 48.8407H135.797C135.8 48.8407 135.803 48.8378 135.803 48.8341V42.4989C135.803 42.4952 135.8 42.4923 135.797 42.4923H134.536C134.532 42.4923 134.529 42.4952 134.529 42.4989V48.8341C134.529 48.8378 134.532 48.8407 134.536 48.8407Z" fill="white"/>
<path d="M138.957 43.7725H141.011V48.8341C141.011 48.8378 141.014 48.8407 141.018 48.8407H142.279C142.283 48.8407 142.286 48.8378 142.286 48.8341V43.7725H144.34C144.343 43.7725 144.346 43.7696 144.346 43.7659V42.4989C144.346 42.4952 144.343 42.4923 144.34 42.4923H138.957C138.954 42.4923 138.951 42.4952 138.951 42.4989V43.7659C138.951 43.7696 138.954 43.7725 138.957 43.7725Z" fill="white"/>
<path d="M152.888 42.4955C152.887 42.4936 152.885 42.4924 152.883 42.4924H151.494C151.492 42.4924 151.489 42.4939 151.488 42.4963L150.191 45.3159L148.894 42.4963C148.893 42.494 148.891 42.4924 148.888 42.4924H147.5C147.498 42.4924 147.496 42.4936 147.495 42.4955C147.494 42.4974 147.493 42.4998 147.494 42.5019L149.491 46.8445L149.554 46.9827V48.8343C149.554 48.8379 149.557 48.8409 149.561 48.8409H150.822C150.825 48.8409 150.828 48.8379 150.828 48.8343V46.9831L150.892 46.8444C150.892 46.8443 150.892 46.844 150.892 46.8438L152.888 42.5018C152.889 42.4998 152.889 42.4974 152.888 42.4955Z" fill="white"/>
<path d="M38.1485 37.556C38.1485 37.5689 38.1589 37.5794 38.1717 37.5794H42.6244C42.6372 37.5794 42.6476 37.5689 42.6476 37.556V15.1836C42.6476 15.1707 42.6372 15.1603 42.6244 15.1603H37.3893C37.3813 15.1603 37.3737 15.1644 37.3696 15.1713L30.8795 25.716L24.3893 15.1713C24.3852 15.1644 24.3776 15.1603 24.3696 15.1603H19.1346C19.1217 15.1603 19.1113 15.1707 19.1113 15.1836V37.556C19.1113 37.5689 19.1217 37.5794 19.1346 37.5794H23.5854C23.5982 37.5794 23.6086 37.5689 23.6086 37.556V22.4948L30.8598 34.2749C30.8681 34.2888 30.891 34.2888 30.8993 34.2749L38.1487 22.4986L38.1485 37.556Z" fill="white"/>
<path d="M73.9896 22.1294C73.9939 22.1363 74.0013 22.1404 74.0093 22.1404C74.0173 22.1404 74.0247 22.1363 74.029 22.1294L78.2977 15.1953C78.3021 15.1881 78.3023 15.1791 78.2982 15.1716C78.2941 15.1642 78.2863 15.1597 78.278 15.1597H69.7406C69.7323 15.1597 69.7245 15.1642 69.7204 15.1716C69.7163 15.1791 69.7165 15.1881 69.7209 15.1953L73.9896 22.1294ZM74.0292 30.609C74.0206 30.5954 73.9982 30.5954 73.9896 30.609L69.7209 37.5431C69.7165 37.5504 69.7163 37.5594 69.7204 37.5668C69.7245 37.5743 69.7323 37.5788 69.7406 37.5788H78.278C78.2863 37.5788 78.2941 37.5743 78.2982 37.5668C78.3023 37.5594 78.3021 37.5504 78.2977 37.5431L74.0292 30.609ZM71.4128 26.3578L64.5275 15.1707C64.5272 15.17 64.526 15.1698 64.5255 15.169C64.5238 15.1668 64.5218 15.1655 64.5194 15.164C64.5171 15.1627 64.5151 15.1617 64.5125 15.1612C64.5108 15.1608 64.5095 15.1591 64.5076 15.1591H55.4351C55.4347 15.1591 55.4343 15.1597 55.434 15.1597H52.6661C52.6561 15.1597 52.647 15.1662 52.644 15.1759L45.4781 37.5483C45.4759 37.5554 45.4772 37.5633 45.4815 37.5693C45.4857 37.5752 45.4928 37.5788 45.5002 37.5788H50.1759C50.1859 37.5788 50.195 37.5722 50.198 37.5625L51.1737 34.5163H58.8342L59.8099 37.5625C59.813 37.5722 59.822 37.5788 59.832 37.5788H64.5076C64.5091 37.5788 64.5106 37.5786 64.5121 37.5784C64.5179 37.5773 64.5225 37.5739 64.5259 37.5696C64.5259 37.5694 64.5262 37.5694 64.5264 37.5693C64.5266 37.5691 64.5264 37.5685 64.5266 37.5683C64.5268 37.5681 64.5272 37.5681 64.5273 37.5679L71.4126 26.3827C71.4172 26.375 71.4172 26.3655 71.4128 26.3578ZM52.6221 29.9942L55.0039 22.5573L57.3858 29.9942H52.6221Z" fill="white"/>
<path d="M81.1321 37.5786H85.5842C85.597 37.5786 85.6074 37.5682 85.6074 37.5553V15.1829C85.6074 15.17 85.597 15.1595 85.5842 15.1595H81.1321C81.1193 15.1595 81.1089 15.17 81.1089 15.1829V37.5553C81.1089 37.5682 81.1193 37.5786 81.1321 37.5786Z" fill="white"/>
<path d="M107.468 37.5559C107.468 37.5688 107.478 37.5792 107.491 37.5792H111.944C111.957 37.5792 111.967 37.5688 111.967 37.5559V15.1834C111.967 15.1706 111.957 15.1601 111.944 15.1601H106.709C106.701 15.1601 106.693 15.1642 106.689 15.1711L100.199 25.7158L93.7086 15.1711C93.7045 15.1642 93.6969 15.1601 93.6889 15.1601H88.4539C88.4411 15.1601 88.4307 15.1706 88.4307 15.1834V37.5559C88.4307 37.5688 88.4411 37.5792 88.4539 37.5792H92.9047C92.9175 37.5792 92.9279 37.5688 92.9279 37.5559V22.4947L100.179 34.2748C100.187 34.2886 100.21 34.2886 100.219 34.2748L107.468 22.4984L107.468 37.5559Z" fill="white"/>
<path d="M124.947 28.0079V15.1826C124.947 15.1697 124.936 15.1593 124.924 15.1593H114.82C114.807 15.1593 114.796 15.1697 114.796 15.1826V28.0079C114.796 30.8189 117.073 33.1058 119.871 33.1058C122.67 33.1058 124.947 30.8189 124.947 28.0079ZM152.866 15.1606H147.631C147.623 15.1606 147.616 15.1647 147.611 15.1718L141.121 25.7165L134.631 15.1716C134.627 15.1647 134.619 15.1604 134.611 15.1604H129.376C129.363 15.1604 129.353 15.1709 129.353 15.1837V28.0075C129.353 33.2594 125.1 37.5321 119.873 37.5321C119.86 37.5321 119.849 37.5425 119.849 37.5554C119.849 37.5683 119.86 37.5788 119.873 37.5788H129.374C129.375 37.5788 129.375 37.5797 129.376 37.5797H133.827C133.84 37.5797 133.85 37.5692 133.85 37.5564V22.4952L141.101 34.2753C141.11 34.2891 141.132 34.2891 141.141 34.2753L148.39 22.4989V37.5564C148.39 37.5692 148.401 37.5797 148.413 37.5797H152.866C152.879 37.5797 152.889 37.5692 152.889 37.5564V15.1839C152.889 15.1709 152.879 15.1606 152.866 15.1606Z" fill="white"/>
</mask>
<g mask="url(#mask0_531_1428)">
<rect width="172" height="64" fill="url(#paint0_linear_531_1428)"/>
</g>
<defs>
<linearGradient id="paint0_linear_531_1428" x1="172" y1="64" x2="56.821" y2="-54.9976" gradientUnits="userSpaceOnUse">
<stop stop-color="#63C178"/>
<stop offset="1" stop-color="#34AA8E"/>
</linearGradient>
</defs>
</svg>
